<?xml version="1.0" encoding="iso-8859-1"?>
<!-- Uploaded to: SVG Repo, www.svgrepo.com, Generator: SVG Repo Mixer Tools -->
<svg version="1.1" id="Layer_1" xmlns="http://www.w3.org/2000/svg" xmlns:xlink="http://www.w3.org/1999/xlink" 
	 viewBox="0 0 512.001 512.001" xml:space="preserve">
<rect x="231.456" y="131.11" style="fill:#FF6F52;" width="48.835" height="141.277"/>
<g>
	<path style="fill:#CFDCE5;" d="M280.291,303.009v42.608c0,21.01-8.868,41.055-24.417,55.194
		c-7.769-7.07-13.874-15.616-18.036-25.017c-4.162-9.412-6.382-19.667-6.382-30.178v-42.608v-30.622h48.835V303.009z"/>
	<path style="fill:#CFDCE5;" d="M347.35,309.38l1.032,136.416l-92.498,57.88l-92.509-57.88l1.032-136.416l67.048-6.371v42.608
		c0,10.511,2.22,20.766,6.382,30.178c4.162,9.401,10.266,17.947,18.036,25.017c15.549-14.14,24.417-34.184,24.417-55.194v-42.608
		L347.35,309.38z"/>
</g>
<path style="fill:#FCD577;" d="M346.562,56.26c0.178,12.297-7.003,23.507-18.246,28.48l-48.025,21.21v25.161h-48.835v-25.161
	l-48.014-21.21c-11.254-4.972-18.435-16.182-18.258-28.48l0.71-47.936h179.956L346.562,56.26z M316.007,56.759l-0.266-17.88H196.006
	l-0.266,17.88l60.145,26.571L316.007,56.759z"/>
<path d="M355.796,309.317c-0.032-4.269-3.287-7.82-7.537-8.224l-59.522-5.655V111.372l43.067-19.02
	c14.322-6.334,23.43-20.548,23.203-36.217L354.296,8.2c-0.067-4.547-3.774-8.2-8.322-8.2H211.045c-4.597,0-8.324,3.727-8.324,8.324
	s3.727,8.324,8.324,8.324h126.726l0.589,39.732c0.129,8.975-5.088,17.119-13.288,20.745l-48.025,21.21
	c-3.016,1.332-4.961,4.317-4.961,7.615v16.837h-32.187v-16.837c0-3.296-1.945-6.282-4.96-7.614l-48.014-21.21
	c-8.209-3.626-13.428-11.769-13.299-20.743l0.59-39.735h7.969c4.597,0,8.324-3.727,8.324-8.324S186.785,0,182.188,0h-16.171
	c-4.549,0-8.255,3.653-8.323,8.201l-0.71,47.939c-0.226,15.668,8.887,29.884,23.217,36.214l43.053,19.018v184.066l-59.511,5.655
	c-4.249,0.404-7.504,3.956-7.537,8.224l-1.032,136.416c-0.022,2.891,1.457,5.586,3.909,7.12l92.509,57.88
	c1.351,0.845,2.882,1.267,4.415,1.267c1.533,0,3.065-0.423,4.416-1.267l57.876-36.217c3.898-2.438,5.079-7.575,2.64-11.472
	c-2.438-3.898-7.574-5.079-11.472-2.64l-53.461,33.454l-84.149-52.651l0.94-124.25l50.456-4.795v33.454
	c0,11.615,2.386,22.901,7.094,33.548c4.705,10.626,11.448,19.981,20.044,27.804c1.588,1.445,3.595,2.168,5.603,2.168
	c2.006,0,4.013-0.721,5.599-2.165c17.25-15.686,27.142-38.048,27.142-61.353v-33.456l50.469,4.795l0.94,124.25l-9.036,5.654
	c-3.898,2.438-5.079,7.575-2.64,11.472c1.579,2.524,4.29,3.91,7.063,3.909c1.508,0,3.035-0.41,4.408-1.269l12.978-8.121
	c2.451-1.534,3.93-4.229,3.908-7.119L355.796,309.317z M272.089,139.435v124.629h-32.187V139.435H272.089z M255.991,388.905
	c-4.259-4.931-7.749-10.448-10.418-16.476c-3.764-8.509-5.67-17.53-5.67-26.811V303.08c0-0.006,0-0.011,0-0.017v-22.352h32.187
	v22.343c0,0.011,0,0.022,0,0.032v42.531C272.089,361.555,266.3,376.942,255.991,388.905z"/>
<path d="M187.805,38.755l-0.266,17.88c-0.05,3.341,1.902,6.387,4.959,7.738l60.145,26.571c1.071,0.474,2.218,0.71,3.364,0.71
	c1.147,0,2.293-0.236,3.364-0.71l60.122-26.571c3.057-1.351,5.009-4.397,4.959-7.738l-0.266-17.88c-0.068-4.548-3.774-8.2-8.323-8.2
	H196.128C191.579,30.555,187.873,34.207,187.805,38.755z M204.329,47.203h103.332l0.062,4.17L256.006,74.23l-51.738-22.857
	L204.329,47.203z"/>
</svg>